{
  "accessors": [
    {
      "bufferView": 2,
      "componentType": 5126,
      "count": 65532,
      "max": [
        28.363554000854492,
        1.6014909744262695,
        15.018693923950195
      ],
      "min": [
        -2.403691053390503,
        -1.601493000984192,
        -6.0053277015686035
      ],
      "type": "VEC3"
    },
    {
      "bufferView": 2,
      "byteOffset": 786384,
      "componentType": 5126,
      "count": 65532,
      "max": [
        0.9999738931655884,
        1.0,
        1.0
      ],
      "min": [
        -0.9999738931655884,
        -1.0,
        -1.0
      ],
      "type": "VEC3"
    },
    {
      "bufferView": 3,
      "componentType": 5126,
      "count": 65532,
      "max": [
        0.9999988675117493,
        1.0,
        1.0,
        1.0
      ],
      "min": [
        -1.0,
        -1.0,
        -1.0,
        -1.0
      ],
      "type": "VEC4"
    },
    {
      "bufferView": 1,
      "componentType": 5126,
      "count": 65532,
      "max": [
        1.0,
        1.0
      ],
      "min": [
        0.0,
        0.0
      ],
      "type": "VEC2"
    },
    {
      "bufferView": 0,
      "componentType": 5125,
      "count": 251580,
      "type": "SCALAR"
    },
    {
      "bufferView": 2,
      "byteOffset": 1572768,
      "componentType": 5126,
      "count": 22562,
      "max": [
        18.85488510131836,
        1.5899606943130493,
        15.018693923950195
      ],
      "min": [
        -1.5046658515930176,
        -1.5899627208709717,
        -6.0053277015686035
      ],
      "type": "VEC3"
    },
    {
      "bufferView": 2,
      "byteOffset": 1843512,
      "componentType": 5126,
      "count": 22562,
      "max": [
        0.9999738931655884,
        1.0,
        1.0
      ],
      "min": [
        -0.9999738931655884,
        -1.0,
        -1.0
      ],
      "type": "VEC3"
    },
    {
      "bufferView": 3,
      "byteOffset": 1048512,
      "componentType": 5126,
      "count": 22562,
      "max": [
        0.9999988675117493,
        1.0,
        1.0,
        1.0
      ],
      "min": [
        -1.0,
        -1.0,
        -1.0,
        -1.0
      ],
      "type": "VEC4"
    },
    {
      "bufferView": 1,
      "byteOffset": 524256,
      "componentType": 5126,
      "count": 22562,
      "max": [
        1.0,
        1.0
      ],
      "min": [
        0.0,
        0.0
      ],
      "type": "VEC2"
    },
    {
      "bufferView": 0,
      "byteOffset": 1006320,
      "componentType": 5125,
      "count": 83172,
      "type": "SCALAR"
    },
    {
      "bufferView": 2,
      "byteOffset": 2114256,
      "componentType": 5126,
      "count": 65532,
      "max": [
        28.363554000854492,
        1.6014909744262695,
        15.018693923950195
      ],
      "min": [
        -2.403691053390503,
        -1.601493000984192,
        -6.0053277015686035
      ],
      "type": "VEC3"
    },
    {
      "bufferView": 2,
      "byteOffset": 2900640,
      "componentType": 5126,
      "count": 65532,
      "max": [
        0.9999738931655884,
        1.0,
        1.0
      ],
      "min": [
        -0.9999738931655884,
        -1.0,
        -1.0
      ],
      "type": "VEC3"
    },
    {
      "bufferView": 3,
      "byteOffset": 1409504,
      "componentType": 5126,
      "count": 65532,
      "max": [
        0.9999988675117493,
        1.0,
        1.0,
        1.0
      ],
      "min": [
        -1.0,
        -1.0,
        -1.0,
        -1.0
      ],
      "type": "VEC4"
    },
    {
      "bufferView": 1,
      "byteOffset": 704752,
      "componentType": 5126,
      "count": 65532,
      "max": [
        1.0,
        1.0
      ],
      "min": [
        0.0,
        0.0
      ],
      "type": "VEC2"
    },
    {
      "bufferView": 0,
      "byteOffset": 1339008,
      "componentType": 5125,
      "count": 251580,
      "type": "SCALAR"
    },
    {
      "bufferView": 2,
      "byteOffset": 3687024,
      "componentType": 5126,
      "count": 22562,
      "max": [
        18.85488510131836,
        1.5899606943130493,
        15.018693923950195
      ],
      "min": [
        -1.5046658515930176,
        -1.5899627208709717,
        -6.0053277015686035
      ],
      "type": "VEC3"
    },
    {
      "bufferView": 2,
      "byteOffset": 3957768,
      "componentType": 5126,
      "count": 22562,
      "max": [
        0.9999738931655884,
        1.0,
        1.0
      ],
      "min": [
        -0.9999738931655884,
        -1.0,
        -1.0
      ],
      "type": "VEC3"
    },
    {
      "bufferView": 3,
      "byteOffset": 2458016,
      "componentType": 5126,
      "count": 22562,
      "max": [
        0.9999988675117493,
        1.0,
        1.0,
        1.0
      ],
      "min": [
        -1.0,
        -1.0,
        -1.0,
        -1.0
      ],
      "type": "VEC4"
    },
    {
      "bufferView": 1,
      "byteOffset": 1229008,
      "componentType": 5126,
      "count": 22562,
      "max": [
        1.0,
        1.0
      ],
      "min": [
        0.0,
        0.0
      ],
      "type": "VEC2"
    },
    {
      "bufferView": 0,
      "byteOffset": 2345328,
      "componentType": 5125,
      "count": 83172,
      "type": "SCALAR"
    },
    {
      "bufferView": 2,
      "byteOffset": 4228512,
      "componentType": 5126,
      "count": 112,
      "max": [
        18.600740432739258,
        20.602977752685547,
        -27.119783401489258
      ],
      "min": [
        -18.600740432739258,
        -20.60297393798828,
        -32.758880615234375
      ],
      "type": "VEC3"
    },
    {
      "bufferView": 2,
      "byteOffset": 4229856,
      "componentType": 5126,
      "count": 112,
      "max": [
        1.0,
        1.0,
        1.0
      ],
      "min": [
        -1.0,
        -1.0,
        -1.0
      ],
      "type": "VEC3"
    },
    {
      "bufferView": 3,
      "byteOffset": 2819008,
      "componentType": 5126,
      "count": 112,
      "max": [
        1.0,
        2.6092759526363807e-06,
        1.0,
        1.0
      ],
      "min": [
        -1.9558519852580503e-06,
        -3.2070570341602433e-06,
        -1.0,
        1.0
      ],
      "type": "VEC4"
    },
    {
      "bufferView": 1,
      "byteOffset": 1409504,
      "componentType": 5126,
      "count": 112,
      "max": [
        1.0,
        1.0
      ],
      "min": [
        0.0,
        0.0
      ],
      "type": "VEC2"
    },
    {
      "bufferView": 0,
      "byteOffset": 2678016,
      "componentType": 5125,
      "count": 180,
      "type": "SCALAR"
    },
    {
      "bufferView": 2,
      "byteOffset": 4231200,
      "componentType": 5126,
      "count": 1420,
      "max": [
        16.591787338256836,
        18.572187423706055,
        3.840603828430176
      ],
      "min": [
        -16.591787338256836,
        -18.64398956298828,
        -27.079492568969727
      ],
      "type": "VEC3"
    },
    {
      "bufferView": 2,
      "byteOffset": 4248240,
      "componentType": 5126,
      "count": 1420,
      "max": [
        1.0,
        1.0,
        1.0
      ],
      "min": [
        -1.0,
        -1.0,
        -1.0
      ],
      "type": "VEC3"
    },
    {
      "bufferView": 3,
      "byteOffset": 2820800,
      "componentType": 5126,
      "count": 1420,
      "max": [
        1.0,
        1.0,
        1.0,
        1.0
      ],
      "min": [
        -1.0,
        -1.0,
        -1.0,
        -1.0
      ],
      "type": "VEC4"
    },
    {
      "bufferView": 1,
      "byteOffset": 1410400,
      "componentType": 5126,
      "count": 1420,
      "max": [
        0.7999999523162842,
        1.0
      ],
      "min": [
        0.0,
        0.0
      ],
      "type": "VEC2"
    },
    {
      "bufferView": 0,
      "byteOffset": 2678736,
      "componentType": 5125,
      "count": 2484,
      "type": "SCALAR"
    },
    {
      "bufferView": 2,
      "byteOffset": 4265280,
      "componentType": 5126,
      "count": 11243,
      "max": [
        0.040115296840667725,
        0.006125634536147118,
        0.0008788153645582497
      ],
      "min": [
        -1.8505548179235264e-18,
        3.52742790710181e-06,
        -0.0003000000142492354
      ],
      "type": "VEC3"
    },
    {
      "bufferView": 2,
      "byteOffset": 4400196,
      "componentType": 5126,
      "count": 11243,
      "max": [
        1.0,
        1.0,
        1.0
      ],
      "min": [
        -1.0,
        -1.0,
        -1.0
      ],
      "type": "VEC3"
    },
    {
      "bufferView": 0,
      "byteOffset": 2688672,
      "componentType": 5125,
      "count": 25755,
      "type": "SCALAR"
    },
    {
      "bufferView": 2,
      "byteOffset": 4535112,
      "componentType": 5126,
      "count": 3494,
      "max": [
        0.040115296840667725,
        0.006125634536147118,
        0.0003000000142492354
      ],
      "min": [
        0.0,
        3.52742790710181e-06,
        -0.0003000000142492354
      ],
      "type": "VEC3"
    },
    {
      "bufferView": 2,
      "byteOffset": 4577040,
      "componentType": 5126,
      "count": 3494,
      "max": [
        1.0,
        1.0,
        0.0
      ],
      "min": [
        -1.0,
        -1.0,
        0.0
      ],
      "type": "VEC3"
    },
    {
      "bufferView": 0,
      "byteOffset": 2791692,
      "componentType": 5125,
      "count": 10482,
      "type": "SCALAR"
    },
    {
      "bufferView": 2,
      "byteOffset": 4618968,
      "componentType": 5126,
      "count": 7823,
      "max": [
        0.040115296840667725,
        0.006125634536147118,
        -0.0003000000142492354
      ],
      "min": [
        -3.9704935651304994e-19,
        3.52742790710181e-06,
        -0.0008799503557384014
      ],
      "type": "VEC3"
    },
    {
      "bufferView": 2,
      "byteOffset": 4712844,
      "componentType": 5126,
      "count": 7823,
      "max": [
        1.0,
        1.0,
        0.0
      ],
      "min": [
        -1.0,
        -1.0,
        -1.0
      ],
      "type": "VEC3"
    },
    {
      "bufferView": 0,
      "byteOffset": 2833620,
      "componentType": 5125,
      "count": 15573,
      "type": "SCALAR"
    }
  ],
  "asset": {
    "extras": {
      "author": "Kenny Park (https://sketchfab.com/parkkennypark)",
      "license": "CC-BY-4.0 (http://creativecommons.org/licenses/by/4.0/)",
      "source": "https://sketchfab.com/3d-models/greek-structure-1704b62443d545de98036966c43ab6b2",
      "title": "Greek Structure"
    },
    "generator": "Sketchfab-12.68.0",
    "version": "2.0"
  },
  "bufferViews": [
    {
      "buffer": 0,
      "byteLength": 2895912,
      "name": "floatBufferViews",
      "target": 34963
    },
    {
      "buffer": 0,
      "byteLength": 1421760,
      "byteOffset": 2895912,
      "byteStride": 8,
      "name": "floatBufferViews",
      "target": 34962
    },
    {
      "buffer": 0,
      "byteLength": 4806720,
      "byteOffset": 4317672,
      "byteStride": 12,
      "name": "floatBufferViews",
      "target": 34962
    },
    {
      "buffer": 0,
      "byteLength": 2843520,
      "byteOffset": 9124392,
      "byteStride": 16,
      "name": "floatBufferViews",
      "target": 34962
    }
  ],
  "buffers": [
    {
      "byteLength": 11967912,
      "uri": "scene.bin"
    }
  ],
  "images": [
    {
      "uri": "textures/Pillars_baseColor.png"
    },
    {
      "uri": "textures/Pillars_metallicRoughness.png"
    },
    {
      "uri": "textures/Pillars_normal.png"
    },
    {
      "uri": "textures/Base_baseColor.png"
    },
    {
      "uri": "textures/Base_metallicRoughness.png"
    },
    {
      "uri": "textures/Base_normal.png"
    },
    {
      "uri": "textures/Structure_baseColor.png"
    },
    {
      "uri": "textures/Structure_metallicRoughness.png"
    },
    {
      "uri": "textures/Structure_normal.png"
    }
  ],
  "materials": [
    {
      "doubleSided": true,
      "name": "Pillars",
      "normalTexture": {
        "index": 2
      },
      "pbrMetallicRoughness": {
        "baseColorTexture": {
          "index": 0
        },
        "metallicRoughnessTexture": {
          "index": 1
        }
      }
    },
    {
      "doubleSided": true,
      "name": "Base",
      "normalTexture": {
        "index": 5
      },
      "pbrMetallicRoughness": {
        "baseColorTexture": {
          "index": 3
        },
        "metallicRoughnessTexture": {
          "index": 4
        }
      }
    },
    {
      "doubleSided": true,
      "name": "Structure",
      "normalTexture": {
        "index": 8
      },
      "pbrMetallicRoughness": {
        "baseColorTexture": {
          "index": 6
        },
        "metallicFactor": 0.0,
        "metallicRoughnessTexture": {
          "index": 7
        }
      }
    },
    {
      "doubleSided": true,
      "emissiveFactor": [
        0.5015152439926609,
        0.5015152439926609,
        0.5015152439926609
      ],
      "name": "Front",
      "pbrMetallicRoughness": {
        "baseColorFactor": [
          0.828292110066717,
          0.9330503218869409,
          1.0,
          1.0
        ],
        "metallicFactor": 0.0,
        "roughnessFactor": 0.0
      }
    },
    {
      "doubleSided": true,
      "emissiveFactor": [
        0.19319204856055477,
        0.4773770138027712,
        0.5
      ],
      "name": "Middle",
      "pbrMetallicRoughness": {
        "baseColorFactor": [
          0.398045601540723,
          0.7525548513752506,
          1.0,
          1.0
        ],
        "metallicFactor": 0.0,
        "roughnessFactor": 0.8040408205773457
      }
    },
    {
      "doubleSided": true,
      "emissiveFactor": [
        0.11539519624700355,
        0.27672403466262496,
        0.5
      ],
      "name": "Back",
      "pbrMetallicRoughness": {
        "baseColorFactor": [
          0.1681438084417917,
          0.4960524835973497,
          1.0,
          1.0
        ],
        "metallicFactor": 0.0,
        "roughnessFactor": 0.8040408205773457
      }
    }
  ],
  "meshes": [
    {
      "name": "Plane.001_Pillars_0",
      "primitives": [
        {
          "attributes": {
            "NORMAL": 1,
            "POSITION": 0,
            "TANGENT": 2,
            "TEXCOORD_0": 3
          },
          "indices": 4,
          "material": 0,
          "mode": 4
        }
      ]
    },
    {
      "name": "Plane.001_Pillars_0",
      "primitives": [
        {
          "attributes": {
            "NORMAL": 6,
            "POSITION": 5,
            "TANGENT": 7,
            "TEXCOORD_0": 8
          },
          "indices": 9,
          "material": 0,
          "mode": 4
        }
      ]
    },
    {
      "name": "Plane.000_Pillars_0",
      "primitives": [
        {
          "attributes": {
            "NORMAL": 11,
            "POSITION": 10,
            "TANGENT": 12,
            "TEXCOORD_0": 13
          },
          "indices": 14,
          "material": 0,
          "mode": 4
        }
      ]
    },
    {
      "name": "Plane.000_Pillars_0",
      "primitives": [
        {
          "attributes": {
            "NORMAL": 16,
            "POSITION": 15,
            "TANGENT": 17,
            "TEXCOORD_0": 18
          },
          "indices": 19,
          "material": 0,
          "mode": 4
        }
      ]
    },
    {
      "name": "Cube.001_Base_0",
      "primitives": [
        {
          "attributes": {
            "NORMAL": 21,
            "POSITION": 20,
            "TANGENT": 22,
            "TEXCOORD_0": 23
          },
          "indices": 24,
          "material": 1,
          "mode": 4
        }
      ]
    },
    {
      "name": "Cube_Structure_0",
      "primitives": [
        {
          "attributes": {
            "NORMAL": 26,
            "POSITION": 25,
            "TANGENT": 27,
            "TEXCOORD_0": 28
          },
          "indices": 29,
          "material": 2,
          "mode": 4
        }
      ]
    },
    {
      "name": "Curve.000_Front_0",
      "primitives": [
        {
          "attributes": {
            "NORMAL": 31,
            "POSITION": 30
          },
          "indices": 32,
          "material": 3,
          "mode": 4
        }
      ]
    },
    {
      "name": "Curve.000_Middle_0",
      "primitives": [
        {
          "attributes": {
            "NORMAL": 34,
            "POSITION": 33
          },
          "indices": 35,
          "material": 4,
          "mode": 4
        }
      ]
    },
    {
      "name": "Curve.000_Back_0",
      "primitives": [
        {
          "attributes": {
            "NORMAL": 37,
            "POSITION": 36
          },
          "indices": 38,
          "material": 5,
          "mode": 4
        }
      ]
    }
  ],
  "nodes": [
    {
      "children": [
        1
      ],
      "matrix": [
        0.2949821949005127,
        0.0,
        0.0,
        0.0,
        0.0,
        6.549920492660293e-17,
        -0.2949821949005127,
        0.0,
        0.0,
        0.2949821949005127,
        6.549920492660293e-17,
        0.0,
        0.0,
        0.0,
        0.0,
        1.0
      ],
      "name": "Sketchfab_model"
    },
    {
      "children": [
        2
      ],
      "matrix": [
        1.0,
        0.0,
        0.0,
        0.0,
        0.0,
        0.0,
        1.0,
        0.0,
        0.0,
        -1.0,
        0.0,
        0.0,
        0.0,
        0.0,
        0.0,
        1.0
      ],
      "name": "4864e30f4aff48af9ea2a2cc68f5e200.fbx"
    },
    {
      "children": [
        3,
        5,
        8,
        11,
        13,
        15
      ],
      "name": "RootNode"
    },
    {
      "children": [
        4
      ],
      "matrix": [
        -0.6515580886809003,
        -0.44527136500527453,
        -0.6141704562835514,
        0.0,
        -0.3240134686089782,
        0.8953956599577143,
        -0.30542083145860877,
        0.0,
        0.6859207524392246,
        8.666909498411535e-08,
        -0.7276762476357193,
        0.0,
        7.358891487121582,
        4.958309173583984,
        6.925790786743164,
        1.0
      ],
      "name": "Camera"
    },
    {
      "name": "Object_4"
    },
    {
      "children": [
        6,
        7
      ],
      "matrix": [
        1.0,
        0.0,
        0.0,
        0.0,
        -0.0,
        -1.6292067939183141e-07,
        -0.9999999999999868,
        0.0,
        0.0,
        0.9999999999999868,
        -1.6292067939183141e-07,
        0.0,
        -12.983548164367676,
        6.084214687347412,
        0.0,
        1.0
      ],
      "name": "Plane.001"
    },
    {
      "mesh": 0,
      "name": "Plane.001_Pillars_0"
    },
    {
      "mesh": 1,
      "name": "Plane.001_Pillars_0"
    },
    {
      "children": [
        9,
        10
      ],
      "matrix": [
        1.0,
        0.0,
        0.0,
        0.0,
        -0.0,
        -1.6292067939183141e-07,
        -0.9999999999999868,
        0.0,
        0.0,
        0.9999999999999868,
        -1.6292067939183141e-07,
        0.0,
        -12.983548164367676,
        6.084214687347412,
        -29.53193473815918,
        1.0
      ],
      "name": "Plane.000"
    },
    {
      "mesh": 2,
      "name": "Plane.000_Pillars_0"
    },
    {
      "mesh": 3,
      "name": "Plane.000_Pillars_0"
    },
    {
      "children": [
        12
      ],
      "matrix": [
        1.0,
        0.0,
        0.0,
        0.0,
        0.0,
        -1.6292067939183141e-07,
        -0.9999999999999868,
        0.0,
        0.0,
        0.9999999999999868,
        -1.6292067939183141e-07,
        0.0,
        0.0,
        27.228849411010742,
        -14.729599952697754,
        1.0
      ],
      "name": "Cube.001"
    },
    {
      "mesh": 4,
      "name": "Cube.001_Base_0"
    },
    {
      "children": [
        14
      ],
      "matrix": [
        1.0,
        0.0,
        0.0,
        0.0,
        0.0,
        -1.6292067939183141e-07,
        -0.9999999999999868,
        0.0,
        0.0,
        0.9999999999999868,
        -1.6292067939183141e-07,
        0.0,
        0.0,
        27.15663719177246,
        -14.641979217529297,
        1.0
      ],
      "name": "Cube"
    },
    {
      "mesh": 5,
      "name": "Cube_Structure_0"
    },
    {
      "children": [
        16,
        17,
        18
      ],
      "matrix": [
        327.8679504394531,
        -7.28013182015005e-14,
        -7.069611079821376e-28,
        0.0,
        7.280131820149953e-14,
        327.86795043944875,
        5.3416471056435535e-05,
        0.0,
        -7.940631066205133e-21,
        -3.576142097930123e-05,
        219.50202941894239,
        0.0,
        2.2039389610290527,
        -1.2696008682250977,
        2.1079132556915283,
        1.0
      ],
      "name": "Curve.000"
    },
    {
      "mesh": 6,
      "name": "Curve.000_Front_0"
    },
    {
      "mesh": 7,
      "name": "Curve.000_Middle_0"
    },
    {
      "mesh": 8,
      "name": "Curve.000_Back_0"
    }
  ],
  "samplers": [
    {
      "magFilter": 9729,
      "minFilter": 9987,
      "wrapS": 10497,
      "wrapT": 10497
    }
  ],
  "scene": 0,
  "scenes": [
    {
      "name": "Sketchfab_Scene",
      "nodes": [
        0
      ]
    }
  ],
  "textures": [
    {
      "sampler": 0,
      "source": 0
    },
    {
      "sampler": 0,
      "source": 1
    },
    {
      "sampler": 0,
      "source": 2
    },
    {
      "sampler": 0,
      "source": 3
    },
    {
      "sampler": 0,
      "source": 4
    },
    {
      "sampler": 0,
      "source": 5
    },
    {
      "sampler": 0,
      "source": 6
    },
    {
      "sampler": 0,
      "source": 7
    },
    {
      "sampler": 0,
      "source": 8
    }
  ]
}
