{
  "accessors": [
    {
      "bufferView": 2,
      "componentType": 5126,
      "count": 65533,
      "max": [
        0.6633790135383606,
        2.317150115966797,
        9.515548706054688
      ],
      "min": [
        -3.151724100112915,
        -1.6973249912261963,
        1.0725300312042236
      ],
      "type": "VEC3"
    },
    {
      "bufferView": 2,
      "byteOffset": 786396,
      "componentType": 5126,
      "count": 65533,
      "max": [
        0.9999173879623413,
        0.9999668598175049,
        0.9999836683273315
      ],
      "min": [
        -0.9999591112136841,
        -0.9999651908874512,
        -0.9999446868896484
      ],
      "type": "VEC3"
    },
    {
      "bufferView": 1,
      "componentType": 5126,
      "count": 65533,
      "max": [
        0.999422013759613,
        0.9978039860725403
      ],
      "min": [
        0.0005830000154674053,
        0.0005869999877177179
      ],
      "type": "VEC2"
    },
    {
      "bufferView": 0,
      "componentType": 5125,
      "count": 206454,
      "type": "SCALAR"
    },
    {
      "bufferView": 2,
      "byteOffset": 1572792,
      "componentType": 5126,
      "count": 65532,
      "max": [
        0.43872401118278503,
        2.469325065612793,
        9.515548706054688
      ],
      "min": [
        -2.5100090503692627,
        -1.993399977684021,
        1.6851030588150024
      ],
      "type": "VEC3"
    },
    {
      "bufferView": 2,
      "byteOffset": 2359176,
      "componentType": 5126,
      "count": 65532,
      "max": [
        0.9999256134033203,
        0.9999459981918335,
        0.9999758005142212
      ],
      "min": [
        -0.9999470710754395,
        -0.9999567270278931,
        -0.9999929666519165
      ],
      "type": "VEC3"
    },
    {
      "bufferView": 1,
      "byteOffset": 524264,
      "componentType": 5126,
      "count": 65532,
      "max": [
        0.9994140267372131,
        0.9950810074806213
      ],
      "min": [
        0.0005869999877177179,
        0.0005879999953322113
      ],
      "type": "VEC2"
    },
    {
      "bufferView": 0,
      "byteOffset": 825816,
      "componentType": 5125,
      "count": 190224,
      "type": "SCALAR"
    },
    {
      "bufferView": 2,
      "byteOffset": 3145560,
      "componentType": 5126,
      "count": 65532,
      "max": [
        0.09389200061559677,
        0.8902109861373901,
        9.515548706054688
      ],
      "min": [
        -2.5231409072875977,
        -1.9204000234603882,
        1.6663130521774292
      ],
      "type": "VEC3"
    },
    {
      "bufferView": 2,
      "byteOffset": 3931944,
      "componentType": 5126,
      "count": 65532,
      "max": [
        0.9999265670776367,
        0.9999604225158691,
        0.9999822378158569
      ],
      "min": [
        -0.9998505115509033,
        -0.9996924996376038,
        -0.9998843669891357
      ],
      "type": "VEC3"
    },
    {
      "bufferView": 1,
      "byteOffset": 1048520,
      "componentType": 5126,
      "count": 65532,
      "max": [
        0.9993990063667297,
        0.9990559816360474
      ],
      "min": [
        0.0005830000154674053,
        0.0005849999724887311
      ],
      "type": "VEC2"
    },
    {
      "bufferView": 0,
      "byteOffset": 1586712,
      "componentType": 5125,
      "count": 185427,
      "type": "SCALAR"
    },
    {
      "bufferView": 2,
      "byteOffset": 4718328,
      "componentType": 5126,
      "count": 65532,
      "max": [
        1.1930899620056152,
        0.7179480195045471,
        5.2299041748046875
      ],
      "min": [
        -2.2415308952331543,
        -2.7744719982147217,
        1.6972429752349854
      ],
      "type": "VEC3"
    },
    {
      "bufferView": 2,
      "byteOffset": 5504712,
      "componentType": 5126,
      "count": 65532,
      "max": [
        0.9999620914459229,
        0.9999915361404419,
        0.9998064637184143
      ],
      "min": [
        -0.9999964237213135,
        -0.9999969005584717,
        -0.9999223947525024
      ],
      "type": "VEC3"
    },
    {
      "bufferView": 1,
      "byteOffset": 1572776,
      "componentType": 5126,
      "count": 65532,
      "max": [
        0.9994819760322571,
        0.997901976108551
      ],
      "min": [
        0.0005859999801032245,
        0.0005840000230818987
      ],
      "type": "VEC2"
    },
    {
      "bufferView": 0,
      "byteOffset": 2328420,
      "componentType": 5125,
      "count": 195567,
      "type": "SCALAR"
    },
    {
      "bufferView": 2,
      "byteOffset": 6291096,
      "componentType": 5126,
      "count": 65532,
      "max": [
        1.1809370517730713,
        2.909605026245117,
        6.854259014129639
      ],
      "min": [
        -3.2032039165496826,
        -2.768486976623535,
        0.2290080040693283
      ],
      "type": "VEC3"
    },
    {
      "bufferView": 2,
      "byteOffset": 7077480,
      "componentType": 5126,
      "count": 65532,
      "max": [
        0.9999620914459229,
        0.999919056892395,
        0.9999134540557861
      ],
      "min": [
        -0.9999432563781738,
        -0.9999932050704956,
        -0.9983364343643188
      ],
      "type": "VEC3"
    },
    {
      "bufferView": 1,
      "byteOffset": 2097032,
      "componentType": 5126,
      "count": 65532,
      "max": [
        0.999413013458252,
        0.9978700280189514
      ],
      "min": [
        0.0005849999724887311,
        0.0005840000230818987
      ],
      "type": "VEC2"
    },
    {
      "bufferView": 0,
      "byteOffset": 3110688,
      "componentType": 5125,
      "count": 197790,
      "type": "SCALAR"
    },
    {
      "bufferView": 2,
      "byteOffset": 7863864,
      "componentType": 5126,
      "count": 65532,
      "max": [
        1.4985270500183105,
        1.3932770490646362,
        3.1185319423675537
      ],
      "min": [
        -3.182147979736328,
        -1.9948300123214722,
        0.2289399951696396
      ],
      "type": "VEC3"
    },
    {
      "bufferView": 2,
      "byteOffset": 8650248,
      "componentType": 5126,
      "count": 65532,
      "max": [
        1.0,
        0.9934081435203552,
        0.9999164342880249
      ],
      "min": [
        -0.9999498128890991,
        -0.9998735189437866,
        -0.9976642727851868
      ],
      "type": "VEC3"
    },
    {
      "bufferView": 1,
      "byteOffset": 2621288,
      "componentType": 5126,
      "count": 65532,
      "max": [
        0.9994069933891296,
        0.998071014881134
      ],
      "min": [
        0.0005869999877177179,
        0.0005840000230818987
      ],
      "type": "VEC2"
    },
    {
      "bufferView": 0,
      "byteOffset": 3901848,
      "componentType": 5125,
      "count": 197571,
      "type": "SCALAR"
    },
    {
      "bufferView": 2,
      "byteOffset": 9436632,
      "componentType": 5126,
      "count": 65532,
      "max": [
        1.5664960145950317,
        2.080051898956299,
        3.392524003982544
      ],
      "min": [
        -2.26294207572937,
        -3.0845749378204346,
        0.30623701214790344
      ],
      "type": "VEC3"
    },
    {
      "bufferView": 2,
      "byteOffset": 10223016,
      "componentType": 5126,
      "count": 65532,
      "max": [
        0.9999979734420776,
        0.9999347925186157,
        0.9993863105773926
      ],
      "min": [
        -0.9999068975448608,
        -0.9999693632125854,
        -0.99924236536026
      ],
      "type": "VEC3"
    },
    {
      "bufferView": 1,
      "byteOffset": 3145544,
      "componentType": 5126,
      "count": 65532,
      "max": [
        0.9993759989738464,
        0.9992510080337524
      ],
      "min": [
        0.0005890000029467046,
        0.0005849999724887311
      ],
      "type": "VEC2"
    },
    {
      "bufferView": 0,
      "byteOffset": 4692132,
      "componentType": 5125,
      "count": 203340,
      "type": "SCALAR"
    },
    {
      "bufferView": 2,
      "byteOffset": 11009400,
      "componentType": 5126,
      "count": 65532,
      "max": [
        1.4843449592590332,
        2.100917100906372,
        6.568091869354248
      ],
      "min": [
        -2.282212972640991,
        -2.5062429904937744,
        0.22377799451351166
      ],
      "type": "VEC3"
    },
    {
      "bufferView": 2,
      "byteOffset": 11795784,
      "componentType": 5126,
      "count": 65532,
      "max": [
        0.9999749660491943,
        0.9999958276748657,
        0.9999979734420776
      ],
      "min": [
        -0.9999866485595703,
        -0.9999428987503052,
        -0.9999152421951294
      ],
      "type": "VEC3"
    },
    {
      "bufferView": 1,
      "byteOffset": 3669800,
      "componentType": 5126,
      "count": 65532,
      "max": [
        0.9994180202484131,
        0.9992619752883911
      ],
      "min": [
        0.0005830000154674053,
        0.0005840000230818987
      ],
      "type": "VEC2"
    },
    {
      "bufferView": 0,
      "byteOffset": 5505492,
      "componentType": 5125,
      "count": 196563,
      "type": "SCALAR"
    },
    {
      "bufferView": 2,
      "byteOffset": 12582168,
      "componentType": 5126,
      "count": 65533,
      "max": [
        1.3231409788131714,
        2.920828104019165,
        6.836059093475342
      ],
      "min": [
        -2.1383159160614014,
        -2.5062429904937744,
        0.2982479929924011
      ],
      "type": "VEC3"
    },
    {
      "bufferView": 2,
      "byteOffset": 13368564,
      "componentType": 5126,
      "count": 65533,
      "max": [
        0.9999923706054688,
        0.9999827146530151,
        0.9999874830245972
      ],
      "min": [
        -0.9999817609786987,
        -0.9999791383743286,
        -0.9998342394828796
      ],
      "type": "VEC3"
    },
    {
      "bufferView": 1,
      "byteOffset": 4194056,
      "componentType": 5126,
      "count": 65533,
      "max": [
        0.9993990063667297,
        0.9978160262107849
      ],
      "min": [
        0.0005830000154674053,
        0.0005830000154674053
      ],
      "type": "VEC2"
    },
    {
      "bufferView": 0,
      "byteOffset": 6291744,
      "componentType": 5125,
      "count": 188061,
      "type": "SCALAR"
    },
    {
      "bufferView": 2,
      "byteOffset": 14154960,
      "componentType": 5126,
      "count": 65532,
      "max": [
        1.306812047958374,
        2.9202380180358887,
        6.809762001037598
      ],
      "min": [
        -2.235837936401367,
        0.11307699978351593,
        1.7328740358352661
      ],
      "type": "VEC3"
    },
    {
      "bufferView": 2,
      "byteOffset": 14941344,
      "componentType": 5126,
      "count": 65532,
      "max": [
        0.9997802376747131,
        0.9999996423721313,
        0.999958872795105
      ],
      "min": [
        -0.9999903440475464,
        -0.9984925985336304,
        -0.9999865293502808
      ],
      "type": "VEC3"
    },
    {
      "bufferView": 1,
      "byteOffset": 4718320,
      "componentType": 5126,
      "count": 65532,
      "max": [
        0.9993739724159241,
        0.9947839975357056
      ],
      "min": [
        0.0005849999724887311,
        0.0005830000154674053
      ],
      "type": "VEC2"
    },
    {
      "bufferView": 0,
      "byteOffset": 7043988,
      "componentType": 5125,
      "count": 192597,
      "type": "SCALAR"
    },
    {
      "bufferView": 2,
      "byteOffset": 15727728,
      "componentType": 5126,
      "count": 65532,
      "max": [
        1.072240948677063,
        2.8997321128845215,
        6.783545017242432
      ],
      "min": [
        -2.1539790630340576,
        -3.0845749378204346,
        1.7306519746780396
      ],
      "type": "VEC3"
    },
    {
      "bufferView": 2,
      "byteOffset": 16514112,
      "componentType": 5126,
      "count": 65532,
      "max": [
        0.9999687671661377,
        0.9999954700469971,
        0.9999834299087524
      ],
      "min": [
        -0.9999909400939941,
        -0.9999814033508301,
        -0.9998311400413513
      ],
      "type": "VEC3"
    },
    {
      "bufferView": 1,
      "byteOffset": 5242576,
      "componentType": 5126,
      "count": 65532,
      "max": [
        0.9993990063667297,
        0.9989359974861145
      ],
      "min": [
        0.0005830000154674053,
        0.0005830000154674053
      ],
      "type": "VEC2"
    },
    {
      "bufferView": 0,
      "byteOffset": 7814376,
      "componentType": 5125,
      "count": 182553,
      "type": "SCALAR"
    },
    {
      "bufferView": 2,
      "byteOffset": 17300496,
      "componentType": 5126,
      "count": 65533,
      "max": [
        0.9638649821281433,
        0.7676259875297546,
        6.839548110961914
      ],
      "min": [
        -2.2571749687194824,
        -3.050097942352295,
        1.6946909427642822
      ],
      "type": "VEC3"
    },
    {
      "bufferView": 2,
      "byteOffset": 18086892,
      "componentType": 5126,
      "count": 65533,
      "max": [
        0.9996331334114075,
        0.9999345541000366,
        0.9999549388885498
      ],
      "min": [
        -0.9999854564666748,
        -0.9999186992645264,
        -0.9999262094497681
      ],
      "type": "VEC3"
    },
    {
      "bufferView": 1,
      "byteOffset": 5766832,
      "componentType": 5126,
      "count": 65533,
      "max": [
        0.9994000196456909,
        0.9975500106811523
      ],
      "min": [
        0.0005830000154674053,
        0.0005840000230818987
      ],
      "type": "VEC2"
    },
    {
      "bufferView": 0,
      "byteOffset": 8544588,
      "componentType": 5125,
      "count": 188382,
      "type": "SCALAR"
    },
    {
      "bufferView": 2,
      "byteOffset": 18873288,
      "componentType": 5126,
      "count": 15576,
      "max": [
        0.9113579988479614,
        0.6975110173225403,
        6.86669921875
      ],
      "min": [
        -2.218187093734741,
        -2.7856669425964355,
        1.8257789611816406
      ],
      "type": "VEC3"
    },
    {
      "bufferView": 2,
      "byteOffset": 19060200,
      "componentType": 5126,
      "count": 15576,
      "max": [
        0.9998459219932556,
        0.9971450567245483,
        0.9999880790710449
      ],
      "min": [
        -0.9990764260292053,
        -0.9972536563873291,
        -0.9844998717308044
      ],
      "type": "VEC3"
    },
    {
      "bufferView": 1,
      "byteOffset": 6291096,
      "componentType": 5126,
      "count": 15576,
      "max": [
        0.9993339776992798,
        0.997642993927002
      ],
      "min": [
        0.0006000000284984708,
        0.0005910000181756914
      ],
      "type": "VEC2"
    },
    {
      "bufferView": 0,
      "byteOffset": 9298116,
      "componentType": 5125,
      "count": 41289,
      "type": "SCALAR"
    },
    {
      "bufferView": 2,
      "byteOffset": 19247112,
      "componentType": 5126,
      "count": 3341,
      "max": [
        1.371474027633667,
        2.0901730060577393,
        0.35611599683761597
      ],
      "min": [
        -3.119774103164673,
        -2.4513120651245117,
        0.22377799451351166
      ],
      "type": "VEC3"
    },
    {
      "bufferView": 2,
      "byteOffset": 19287204,
      "componentType": 5126,
      "count": 3341,
      "max": [
        0.6270110607147217,
        -0.014399480074644089,
        -0.7787137031555176
      ],
      "min": [
        -0.27259162068367004,
        -0.026299191638827324,
        -0.9997380375862122
      ],
      "type": "VEC3"
    },
    {
      "bufferView": 1,
      "byteOffset": 6415704,
      "componentType": 5126,
      "count": 3341,
      "max": [
        0.5416070222854614,
        0.9394130110740662
      ],
      "min": [
        0.4458940029144287,
        0.8447830080986023
      ],
      "type": "VEC2"
    },
    {
      "bufferView": 0,
      "byteOffset": 9463272,
      "componentType": 5125,
      "count": 3918,
      "type": "SCALAR"
    }
  ],
  "asset": {
    "extras": {
      "author": "noe-3d.at (https://sketchfab.com/www.noe-3d.at)",
      "license": "CC-BY-NC-4.0 (http://creativecommons.org/licenses/by-nc/4.0/)",
      "source": "https://sketchfab.com/3d-models/amor-und-psyche-1f58b7ec5a7b4b80ba3708a7a01140c0",
      "title": "Amor und Psyche"
    },
    "generator": "Sketchfab-16.29.0",
    "version": "2.0"
  },
  "bufferViews": [
    {
      "buffer": 0,
      "byteLength": 9478944,
      "name": "floatBufferViews",
      "target": 34963
    },
    {
      "buffer": 0,
      "byteLength": 6442432,
      "byteOffset": 9478944,
      "byteStride": 8,
      "name": "floatBufferViews",
      "target": 34962
    },
    {
      "buffer": 0,
      "byteLength": 19327296,
      "byteOffset": 15921376,
      "byteStride": 12,
      "name": "floatBufferViews",
      "target": 34962
    }
  ],
  "buffers": [
    {
      "byteLength": 35248672,
      "uri": "scene.bin"
    }
  ],
  "extensionsUsed": [
    "KHR_materials_specular"
  ],
  "images": [
    {
      "uri": "textures/Amor_Psyche_O.001_baseColor.png"
    }
  ],
  "materials": [
    {
      "doubleSided": true,
      "extensions": {
        "KHR_materials_specular": {
          "specularColorFactor": [
            1.0,
            1.0,
            1.0
          ],
          "specularFactor": 0.0
        }
      },
      "name": "Amor_Psyche_O.001",
      "pbrMetallicRoughness": {
        "baseColorTexture": {
          "index": 0
        },
        "metallicFactor": 0.0
      }
    },
    {
      "doubleSided": true,
      "extensions": {
        "KHR_materials_specular": {
          "specularColorFactor": [
            1.0,
            1.0,
            1.0
          ],
          "specularFactor": 0.0
        }
      },
      "name": "bottom",
      "pbrMetallicRoughness": {
        "baseColorFactor": [
          0.052848795566211124,
          0.048692502852252226,
          0.028840613508667835,
          1.0
        ],
        "metallicFactor": 0.0
      }
    }
  ],
  "meshes": [
    {
      "name": "Object_0",
      "primitives": [
        {
          "attributes": {
            "NORMAL": 1,
            "POSITION": 0,
            "TEXCOORD_0": 2
          },
          "indices": 3,
          "material": 0,
          "mode": 4
        }
      ]
    },
    {
      "name": "Object_1",
      "primitives": [
        {
          "attributes": {
            "NORMAL": 5,
            "POSITION": 4,
            "TEXCOORD_0": 6
          },
          "indices": 7,
          "material": 0,
          "mode": 4
        }
      ]
    },
    {
      "name": "Object_2",
      "primitives": [
        {
          "attributes": {
            "NORMAL": 9,
            "POSITION": 8,
            "TEXCOORD_0": 10
          },
          "indices": 11,
          "material": 0,
          "mode": 4
        }
      ]
    },
    {
      "name": "Object_3",
      "primitives": [
        {
          "attributes": {
            "NORMAL": 13,
            "POSITION": 12,
            "TEXCOORD_0": 14
          },
          "indices": 15,
          "material": 0,
          "mode": 4
        }
      ]
    },
    {
      "name": "Object_4",
      "primitives": [
        {
          "attributes": {
            "NORMAL": 17,
            "POSITION": 16,
            "TEXCOORD_0": 18
          },
          "indices": 19,
          "material": 0,
          "mode": 4
        }
      ]
    },
    {
      "name": "Object_5",
      "primitives": [
        {
          "attributes": {
            "NORMAL": 21,
            "POSITION": 20,
            "TEXCOORD_0": 22
          },
          "indices": 23,
          "material": 0,
          "mode": 4
        }
      ]
    },
    {
      "name": "Object_6",
      "primitives": [
        {
          "attributes": {
            "NORMAL": 25,
            "POSITION": 24,
            "TEXCOORD_0": 26
          },
          "indices": 27,
          "material": 0,
          "mode": 4
        }
      ]
    },
    {
      "name": "Object_7",
      "primitives": [
        {
          "attributes": {
            "NORMAL": 29,
            "POSITION": 28,
            "TEXCOORD_0": 30
          },
          "indices": 31,
          "material": 0,
          "mode": 4
        }
      ]
    },
    {
      "name": "Object_8",
      "primitives": [
        {
          "attributes": {
            "NORMAL": 33,
            "POSITION": 32,
            "TEXCOORD_0": 34
          },
          "indices": 35,
          "material": 0,
          "mode": 4
        }
      ]
    },
    {
      "name": "Object_9",
      "primitives": [
        {
          "attributes": {
            "NORMAL": 37,
            "POSITION": 36,
            "TEXCOORD_0": 38
          },
          "indices": 39,
          "material": 0,
          "mode": 4
        }
      ]
    },
    {
      "name": "Object_10",
      "primitives": [
        {
          "attributes": {
            "NORMAL": 41,
            "POSITION": 40,
            "TEXCOORD_0": 42
          },
          "indices": 43,
          "material": 0,
          "mode": 4
        }
      ]
    },
    {
      "name": "Object_11",
      "primitives": [
        {
          "attributes": {
            "NORMAL": 45,
            "POSITION": 44,
            "TEXCOORD_0": 46
          },
          "indices": 47,
          "material": 0,
          "mode": 4
        }
      ]
    },
    {
      "name": "Object_12",
      "primitives": [
        {
          "attributes": {
            "NORMAL": 49,
            "POSITION": 48,
            "TEXCOORD_0": 50
          },
          "indices": 51,
          "material": 0,
          "mode": 4
        }
      ]
    },
    {
      "name": "Object_13",
      "primitives": [
        {
          "attributes": {
            "NORMAL": 53,
            "POSITION": 52,
            "TEXCOORD_0": 54
          },
          "indices": 55,
          "material": 1,
          "mode": 4
        }
      ]
    }
  ],
  "nodes": [
    {
      "children": [
        1
      ],
      "matrix": [
        0.05117632821202278,
        -0.007294040638953225,
        -0.9986630082130432,
        0.0,
        -0.9984864592552185,
        0.019795075058937083,
        -0.051311861723661416,
        0.0,
        0.020142879337072372,
        0.9997774362564087,
        -0.006269961595535056,
        0.0,
        0.0,
        0.0,
        0.0,
        1.0
      ],
      "name": "Sketchfab_model"
    },
    {
      "children": [
        2,
        3,
        4,
        5,
        6,
        7,
        8,
        9,
        10,
        11,
        12,
        13,
        14,
        15
      ],
      "name": "Amor_Psyche_C.obj.cleaner.materialmerger.gles"
    },
    {
      "mesh": 0,
      "name": "Object_2"
    },
    {
      "mesh": 1,
      "name": "Object_3"
    },
    {
      "mesh": 2,
      "name": "Object_4"
    },
    {
      "mesh": 3,
      "name": "Object_5"
    },
    {
      "mesh": 4,
      "name": "Object_6"
    },
    {
      "mesh": 5,
      "name": "Object_7"
    },
    {
      "mesh": 6,
      "name": "Object_8"
    },
    {
      "mesh": 7,
      "name": "Object_9"
    },
    {
      "mesh": 8,
      "name": "Object_10"
    },
    {
      "mesh": 9,
      "name": "Object_11"
    },
    {
      "mesh": 10,
      "name": "Object_12"
    },
    {
      "mesh": 11,
      "name": "Object_13"
    },
    {
      "mesh": 12,
      "name": "Object_14"
    },
    {
      "mesh": 13,
      "name": "Object_15"
    }
  ],
  "samplers": [
    {
      "magFilter": 9729,
      "minFilter": 9987,
      "wrapS": 10497,
      "wrapT": 10497
    }
  ],
  "scene": 0,
  "scenes": [
    {
      "name": "Sketchfab_Scene",
      "nodes": [
        0
      ]
    }
  ],
  "textures": [
    {
      "sampler": 0,
      "source": 0
    }
  ]
}
