{
  "accessors": [
    {
      "bufferView": 2,
      "componentType": 5126,
      "count": 65532,
      "max": [
        -8.557680130004883,
        8.600258827209473,
        8.896546363830566
      ],
      "min": [
        -10.223065376281738,
        6.839641094207764,
        6.5716400146484375
      ],
      "type": "VEC3"
    },
    {
      "bufferView": 2,
      "byteOffset": 786384,
      "componentType": 5126,
      "count": 65532,
      "max": [
        0.9999591112136841,
        0.999923050403595,
        0.9997584819793701
      ],
      "min": [
        -0.9999975562095642,
        -0.9999975562095642,
        -0.9999226927757263
      ],
      "type": "VEC3"
    },
    {
      "bufferView": 1,
      "componentType": 5126,
      "count": 65532,
      "max": [
        0.9969210028648376,
        0.996084988117218
      ],
      "min": [
        0.0,
        0.0
      ],
      "type": "VEC2"
    },
    {
      "bufferView": 0,
      "componentType": 5125,
      "count": 349173,
      "type": "SCALAR"
    },
    {
      "bufferView": 2,
      "byteOffset": 1572768,
      "componentType": 5126,
      "count": 25284,
      "max": [
        -8.399354934692383,
        8.583126068115234,
        8.896478652954102
      ],
      "min": [
        -10.221237182617188,
        6.9211812019348145,
        6.543178081512451
      ],
      "type": "VEC3"
    },
    {
      "bufferView": 2,
      "byteOffset": 1876176,
      "componentType": 5126,
      "count": 25284,
      "max": [
        0.9998071789741516,
        0.9999484419822693,
        0.9981568455696106
      ],
      "min": [
        -0.9998641610145569,
        -0.9999350309371948,
        -0.9999269843101501
      ],
      "type": "VEC3"
    },
    {
      "bufferView": 1,
      "byteOffset": 524256,
      "componentType": 5126,
      "count": 25284,
      "max": [
        0.9953879714012146,
        0.9996910095214844
      ],
      "min": [
        0.002606000052765012,
        0.0038419999182224274
      ],
      "type": "VEC2"
    },
    {
      "bufferView": 0,
      "byteOffset": 1396692,
      "componentType": 5125,
      "count": 99225,
      "type": "SCALAR"
    }
  ],
  "asset": {
    "extras": {
      "author": "jerryfisher (https://sketchfab.com/jerryfisher)",
      "license": "CC-BY-4.0 (http://creativecommons.org/licenses/by/4.0/)",
      "source": "https://sketchfab.com/3d-models/david-by-michelangelo-3a8f65d7db8e4ba7a0ea886e2b636128",
      "title": "David by Michelangelo"
    },
    "generator": "Sketchfab-12.68.0",
    "version": "2.0"
  },
  "bufferViews": [
    {
      "buffer": 0,
      "byteLength": 1793592,
      "name": "floatBufferViews",
      "target": 34963
    },
    {
      "buffer": 0,
      "byteLength": 726528,
      "byteOffset": 1793592,
      "byteStride": 8,
      "name": "floatBufferViews",
      "target": 34962
    },
    {
      "buffer": 0,
      "byteLength": 2179584,
      "byteOffset": 2520120,
      "byteStride": 12,
      "name": "floatBufferViews",
      "target": 34962
    }
  ],
  "buffers": [
    {
      "byteLength": 4699704,
      "uri": "scene.bin"
    }
  ],
  "extensionsUsed": [
    "KHR_materials_unlit"
  ],
  "images": [
    {
      "uri": "textures/material_0_baseColor.jpeg"
    }
  ],
  "materials": [
    {
      "doubleSided": true,
      "extensions": {
        "KHR_materials_unlit": {}
      },
      "name": "material_0",
      "pbrMetallicRoughness": {
        "baseColorTexture": {
          "index": 0
        },
        "metallicFactor": 0.0
      }
    }
  ],
  "meshes": [
    {
      "name": "Object_0",
      "primitives": [
        {
          "attributes": {
            "NORMAL": 1,
            "POSITION": 0,
            "TEXCOORD_0": 2
          },
          "indices": 3,
          "material": 0,
          "mode": 4
        }
      ]
    },
    {
      "name": "Object_1",
      "primitives": [
        {
          "attributes": {
            "NORMAL": 5,
            "POSITION": 4,
            "TEXCOORD_0": 6
          },
          "indices": 7,
          "material": 0,
          "mode": 4
        }
      ]
    }
  ],
  "nodes": [
    {
      "children": [
        1
      ],
      "matrix": [
        1.0,
        0.0,
        0.0,
        0.0,
        0.0,
        2.220446049250313e-16,
        -1.0,
        0.0,
        0.0,
        1.0,
        2.220446049250313e-16,
        0.0,
        0.0,
        0.0,
        0.0,
        1.0
      ],
      "name": "Sketchfab_model"
    },
    {
      "children": [
        2,
        3
      ],
      "name": "model.obj.cleaner.gles"
    },
    {
      "mesh": 0,
      "name": "Object_2"
    },
    {
      "mesh": 1,
      "name": "Object_3"
    }
  ],
  "samplers": [
    {
      "magFilter": 9729,
      "minFilter": 9987,
      "wrapS": 10497,
      "wrapT": 10497
    }
  ],
  "scene": 0,
  "scenes": [
    {
      "name": "Sketchfab_Scene",
      "nodes": [
        0
      ]
    }
  ],
  "textures": [
    {
      "sampler": 0,
      "source": 0
    }
  ]
}
